<?xml version="1.0" encoding="utf-8"?>
<!-- Final: Triángulo de Propuesta 1 + Textos de Propuesta 2 -->
<svg version="1.1" id="Layer_1" xmlns="http://www.w3.org/2000/svg" xmlns:xlink="http://www.w3.org/1999/xlink" x="0px" y="0px"
	 viewBox="0 0 250 120" style="enable-background:new 0 0 250 120;" xml:space="preserve">
<style type="text/css">
	.st0{fill:#C07A5A;}
	.st1{fill:#C07A5A;}
	.st2{fill:#8A7665;}
	.st3{fill:#A89480;}
	.st4{fill:none;}
	.st5{display:none;}
	.st6{display:inline;fill:#C07A5A;}
	.st7{font-family:'Spartan-Bold';}
	.st8{font-size:38px;}
	.st9{letter-spacing:-1.1;}
	.st10{font-family:'Spartan-SemiBold';}
	.st11{display:inline;fill:#2A1F1A;}
	.st12{font-family:'Spartan-ExtraLight';}
	.st13{letter-spacing:-2.7;}
	.st14{display:none;fill:#2A1F1A;}
	.st15{font-family:'Spartan-Regular';}
	.st16{font-size:33px;}
	.st17{letter-spacing:-2.2;}
	.tri1{fill:#C07A5A;}
	.tri2{fill:#8A7665;}
	.tri3{fill:#C4A68A;}
</style>
<g>
	<g>
		<polygon class="tri1" points="77.9,70 31.2,24.5 100,58.9 		"/>
		<polygon class="tri2" points="29.4,95.1 64.4,61 75.5,70.9 		"/>
		<polygon class="tri3" points="28.4,92.6 28.4,26.1 62.1,58.9 		"/>
	</g>
</g>
<g>
	<path class="tri3" d="M56.2,14.3c25.2,0,45.7,20.5,45.7,45.7s-20.5,45.7-45.7,45.7S10.5,85.2,10.5,60S31,14.3,56.2,14.3 M56.2,12.3
		C29.9,12.3,8.5,33.7,8.5,60s21.4,47.7,47.7,47.7c26.3,0,47.7-21.4,47.7-47.7S82.5,12.3,56.2,12.3L56.2,12.3z"/>
</g>
<g>
	<path class="st0" d="M131,33.3h5.8l12.8,23h-6.8l-2.7-5.2h-12.6l-2.7,5.2h-6.8L131,33.3z M138.1,47.1l-4.1-7.7l-4.1,7.7H138.1z"/>
	<path class="st0" d="M154.1,54.6c-2.1-1.5-3.1-3.6-3.1-6.4V33.3h6.3v13.6c0,1.9,0.5,3.3,1.4,4.2c0.9,0.9,2.4,1.3,4.5,1.3
		c2.1,0,3.6-0.4,4.5-1.3s1.4-2.2,1.4-4.2V33.3h6.3v14.9c0,2.8-1,5-3.1,6.4c-2,1.5-5.1,2.2-9.1,2.2C159.2,56.8,156.1,56.1,154.1,54.6
		z"/>
	<path class="st0" d="M180.6,33.3h10.9c2.2,0,4.1,0.3,5.7,0.8s2.9,1.3,3.7,2.4s1.3,2.3,1.3,3.8c0,1.7-0.6,3.2-1.9,4.4
		c-1.3,1.2-3,2-5.3,2.5l10.5,9.2h-8l-9.2-8.7h-1.5v8.7h-6.3V33.3z M189.6,43.9c2,0,3.5-0.3,4.5-0.9c1.1-0.6,1.6-1.5,1.6-2.6
		c0-1.1-0.5-2-1.6-2.6c-1.1-0.6-2.6-0.9-4.5-0.9h-2.7v7H189.6z"/>
	<path class="st0" d="M220.3,33.3h5.8l12.8,23h-6.8l-2.7-5.2H217l-2.7,5.2h-6.8L220.3,33.3z M227.4,47.1l-4.1-7.7l-4.1,7.7H227.4z"
		/>
</g>
<rect x="113.2" y="40.7" class="st4" width="293.2" height="38.7"/>
<g class="st5">
	<text transform="matrix(0.9 0 0 0.9 113.1593 73.4034)" class="st6 st7 st8 st9">AURA</text>
	<text transform="matrix(0.92 0 0 0.9 217.2965 73.4034)" class="st6 st10 st8 st9"> </text>
	<text transform="matrix(0.75 0 0 0.9 224.8126 73.4034)" class="st11 st12 st8 st13">DIGITAL</text>
</g>
<g>
	<polygon class="st3" points="207.4,73.9 213.9,73.9 210.6,67.8 	"/>
	<path class="st3" d="M118.2,61.1v22.4H239V61.1H118.2z M135.7,75.1c-0.4,0.8-1.1,1.5-1.9,2s-1.8,1-2.8,1.4
		c-1.1,0.3-2.2,0.5-3.5,0.5h-4V66.2h4c1.3,0,2.4,0.2,3.5,0.5c1.1,0.3,2,0.8,2.8,1.4s1.4,1.3,1.9,2c0.5,0.8,0.7,1.6,0.7,2.5
		S136.1,74.4,135.7,75.1z M145.8,79h-1.6V66.2h1.6V79z M170.4,73.8c0,0.9-0.2,1.7-0.7,2.4c-0.5,0.7-1.1,1.2-1.9,1.7
		c-0.8,0.5-1.7,0.8-2.6,1c-1,0.2-1.9,0.3-2.9,0.3c-1.2,0-2.4-0.2-3.4-0.5s-2-0.8-2.8-1.4c-0.8-0.6-1.4-1.3-1.8-2.1s-0.7-1.7-0.7-2.6
		c0-0.9,0.2-1.7,0.6-2.5c0.4-0.8,1-1.5,1.7-2.1c0.8-0.6,1.7-1.1,2.8-1.5c1.1-0.4,2.3-0.5,3.7-0.5c1.4,0,2.6,0.2,3.8,0.5
		c1.1,0.4,2.1,0.8,2.9,1.4l-0.8,0.9c-0.7-0.6-1.5-1-2.5-1.3s-2.1-0.5-3.3-0.5c-1.1,0-2.1,0.2-3,0.5c-0.9,0.3-1.6,0.7-2.2,1.2
		c-0.6,0.5-1.1,1.1-1.4,1.8c-0.3,0.7-0.5,1.4-0.5,2.1c0,0.8,0.2,1.5,0.5,2.2c0.4,0.7,0.8,1.3,1.5,1.8c0.6,0.5,1.4,0.9,2.2,1.2
		c0.8,0.3,1.8,0.4,2.7,0.4c0.8,0,1.6-0.1,2.3-0.3c0.8-0.2,1.4-0.5,2.1-0.8s1.1-0.8,1.5-1.3c0.4-0.5,0.5-1.1,0.5-1.7v-0.4h-6.5v-1
		h8.2V73.8z M179.8,79h-1.6V66.2h1.6V79z M198.4,67.3H193V79h-1.6V67.3H186v-1.1h12.4V67.3z M216.6,79l-2.1-4.1h-7.6l-2.2,4.1h-1.7
		l6.9-12.8h1.5l6.9,12.8H216.6z M234.6,79h-9V66.2h1.6V78h7.4V79z"/>
	<path class="st3" d="M132.5,68.8c-0.7-0.5-1.4-0.9-2.3-1.1c-0.9-0.3-1.9-0.4-2.9-0.4h-2.2V78h2.2c1,0,2-0.1,2.9-0.4
		c0.9-0.3,1.7-0.6,2.3-1.1c0.7-0.5,1.2-1,1.6-1.7c0.4-0.6,0.6-1.3,0.6-2.1s-0.2-1.5-0.6-2.1S133.2,69.3,132.5,68.8z"/>
</g>
<text transform="matrix(0.9156 0 0 0.9 110.4024 83.636)" class="st14 st15 st16 st17">DIGITAL</text>
</svg>
